<?xml version="1.0" encoding="UTF-8"?><svg id="Layer_2" xmlns="http://www.w3.org/2000/svg" viewBox="0 0 684 247.68"><defs><style>.cls-1{fill:none;opacity:.41;}.cls-1,.cls-2,.cls-3{stroke-width:0px;}.cls-2{fill:#b1b3b6;}.cls-3{fill:#fff;}</style></defs><g id="Diseño"><rect class="cls-1" width="684" height="247.68"/><path class="cls-3" d="m348.92,83.65v-47.65h9.63l16.69,40.09,16.69-40.09h9.63v47.65h-6.13v-41.37l-17.48,41.37h-5.42l-17.48-41.37v41.37h-6.13Z"/><path class="cls-3" d="m416.9,83.65v-47.65h6.13v47.65h-6.13Z"/><path class="cls-3" d="m448.42,84.36c-2.71,0-5.05-.42-7.03-1.25-1.97-.83-3.94-2.18-5.88-4.03l3.07-4.49c1.66,1.47,3.32,2.57,4.96,3.28,1.64.71,3.27,1.07,4.89,1.07,3.14,0,5.53-1.01,7.17-3.03,1.64-2.02,2.46-4.79,2.46-8.31v-31.6h6.13v31.38c0,5.61-1.39,9.84-4.17,12.7-2.78,2.85-6.65,4.28-11.59,4.28Z"/><path class="cls-3" d="m479.45,83.65v-47.65h6.13v47.65h-6.13Z"/><path class="cls-3" d="m513.26,83.65v-42.23h-14.98v-5.42h36.02v5.42h-14.91v42.23h-6.13Z"/><path class="cls-3" d="m530.31,83.65l19.54-47.65h6.71l19.54,47.65h-6.63l-4.14-10.41h-24.32l-4.07,10.41h-6.63Zm12.77-15.55h20.26l-10.13-25.61-10.13,25.61Z"/><path class="cls-3" d="m370.89,148.02c-4.95,0-9.23-1.06-12.84-3.17-3.61-2.12-6.4-5.02-8.35-8.7-1.95-3.68-2.92-7.9-2.92-12.66s.97-8.98,2.92-12.66c1.95-3.68,4.73-6.59,8.35-8.7,3.61-2.12,7.89-3.17,12.84-3.17,3.28,0,6.25.46,8.92,1.39,2.66.93,5.14,2.29,7.42,4.1l-2.57,4.78c-2-1.57-4.13-2.77-6.38-3.6-2.26-.83-4.72-1.25-7.38-1.25-3.66,0-6.82.8-9.49,2.39-2.66,1.59-4.72,3.83-6.17,6.71-1.45,2.88-2.18,6.22-2.18,10.02s.72,7.14,2.18,10.02c1.45,2.88,3.51,5.11,6.17,6.71,2.66,1.59,5.82,2.39,9.49,2.39,2.66,0,5.12-.42,7.38-1.25,2.26-.83,4.39-2.03,6.38-3.6l2.57,4.78c-2.28,1.81-4.76,3.17-7.42,4.1-2.66.93-5.63,1.39-8.92,1.39Z"/><path class="cls-3" d="m399.92,147.31v-47.65h6.13v20.4h27.39v-20.4h6.13v47.65h-6.13v-21.83h-27.39v21.83h-6.13Z"/><path class="cls-3" d="m474.67,148.02c-6.09,0-10.91-1.63-14.48-4.89-3.57-3.26-5.35-8.31-5.35-15.16v-28.32h6.13v28.32c0,3.42.55,6.21,1.64,8.35,1.09,2.14,2.66,3.72,4.71,4.74,2.04,1.02,4.49,1.53,7.35,1.53s5.3-.51,7.35-1.53c2.04-1.02,3.61-2.6,4.71-4.74,1.09-2.14,1.64-4.92,1.64-8.35v-28.32h6.13v28.32c0,6.85-1.78,11.9-5.35,15.16-3.57,3.26-8.39,4.89-14.48,4.89Z"/><path class="cls-3" d="m509.76,147.31v-47.65h6.13v42.23h22.83v5.42h-28.96Z"/><path class="cls-3" d="m551.35,147.31v-47.65h6.13v47.65h-6.13Z"/><path class="cls-3" d="m585.16,147.31v-42.23h-14.98v-5.42h36.02v5.42h-14.91v42.23h-6.13Z"/><path class="cls-3" d="m602.2,147.31l19.54-47.65h6.71l19.54,47.65h-6.63l-4.14-10.41h-24.32l-4.07,10.41h-6.63Zm12.77-15.55h20.26l-10.13-25.61-10.13,25.61Z"/><path class="cls-3" d="m348.92,210.97v-47.65h21.75c3.71,0,6.8.42,9.27,1.25,2.47.83,4.34,2.16,5.6,3.99,1.26,1.83,1.89,4.22,1.89,7.17s-.58,5.15-1.75,6.88c-1.17,1.74-3.1,2.98-5.81,3.74,3.23.71,5.54,2.02,6.92,3.92,1.38,1.9,2.07,4.42,2.07,7.56,0,4.76-1.5,8.13-4.49,10.13-3,2-7.56,3-13.69,3h-21.75Zm6.13-27.1h14.69c4.18,0,7.13-.56,8.84-1.68,1.71-1.12,2.57-3.1,2.57-5.96s-.86-4.84-2.57-5.95c-1.71-1.12-4.66-1.68-8.84-1.68h-14.69v15.26Zm0,21.83h14.69c3.19,0,5.71-.28,7.56-.86,1.85-.57,3.2-1.46,4.03-2.67.83-1.21,1.25-2.82,1.25-4.81s-.42-3.61-1.25-4.85c-.83-1.24-2.17-2.13-4.03-2.67s-4.38-.82-7.56-.82h-14.69v16.69Z"/><path class="cls-3" d="m423.96,211.68c-4.95,0-9.23-1.06-12.84-3.17-3.61-2.12-6.4-5.02-8.35-8.7-1.95-3.68-2.92-7.9-2.92-12.66s.97-8.98,2.92-12.66c1.95-3.68,4.73-6.59,8.35-8.7,3.61-2.12,7.89-3.17,12.84-3.17s9.28,1.06,12.87,3.17c3.59,2.12,6.36,5.02,8.31,8.7,1.95,3.68,2.92,7.91,2.92,12.66s-.97,8.98-2.92,12.66c-1.95,3.69-4.72,6.59-8.31,8.7-3.59,2.12-7.88,3.17-12.87,3.17Zm0-5.42c3.66,0,6.82-.8,9.49-2.39,2.66-1.59,4.72-3.83,6.17-6.71,1.45-2.88,2.17-6.22,2.17-10.02s-.73-7.14-2.17-10.02c-1.45-2.88-3.51-5.11-6.17-6.71-2.66-1.59-5.83-2.39-9.49-2.39s-6.82.8-9.49,2.39c-2.66,1.59-4.72,3.83-6.17,6.71-1.45,2.88-2.18,6.22-2.18,10.02s.72,7.14,2.18,10.02c1.45,2.88,3.51,5.11,6.17,6.71,2.66,1.59,5.82,2.39,9.49,2.39Z"/><path class="cls-3" d="m461.19,210.97v-47.65h6.85l26.68,38.94v-38.94h6.13v47.65h-6.85l-26.68-38.95v38.95h-6.13Z"/><path class="cls-3" d="m516.11,210.97v-47.65h6.13v47.65h-6.13Z"/><path class="cls-3" d="m549.92,210.97v-42.23h-14.98v-5.42h36.02v5.42h-14.91v42.23h-6.13Z"/><path class="cls-3" d="m566.97,210.97l19.54-47.65h6.71l19.54,47.65h-6.63l-4.14-10.41h-24.32l-4.07,10.41h-6.63Zm12.77-15.55h20.26l-10.13-25.61-10.13,25.61Z"/><path class="cls-2" d="m283.36,36v134.18c0,6.06-1.32,11.31-4.03,16.08-2.7,4.75-6.29,8.38-10.98,11.09-4.68,2.71-9.66,4.02-15.24,4.02s-10.51-1.31-15.11-4.02c-4.61-2.7-8.2-6.34-11-11.11-2.79-4.77-4.14-10.02-4.14-16.06v-91.03c0-8.52-1.76-16.12-5.23-22.57-3.5-6.49-8.36-11.6-14.44-15.18-6.08-3.58-13.03-5.39-20.65-5.39s-14.51,1.82-20.45,5.41c-5.92,3.59-10.62,8.71-13.96,15.21-3.3,6.44-4.97,14.02-4.97,22.52v91.03c0,6.06-1.32,11.31-4.03,16.08-2.7,4.75-6.29,8.38-10.98,11.09-4.68,2.71-9.74,4.02-15.47,4.02s-10.69-1.31-15.21-4.01c-4.54-2.71-8.06-6.34-10.77-11.1-2.72-4.77-4.03-10.03-4.03-16.08V39.06h-10.78v129.48c0,8.52,1.76,16.12,5.23,22.56h0c3.49,6.49,8.39,11.6,14.57,15.19,6.16,3.58,13.22,5.39,20.99,5.39s15.07-1.81,21.22-5.39c6.17-3.58,11.11-8.68,14.68-15.16,3.56-6.44,5.36-14.04,5.36-22.59v-91.03c0-6.13,1.32-11.58,3.92-16.21,2.64-4.7,6.06-8.29,10.45-11,4.34-2.68,8.99-3.99,14.23-3.99s10,1.31,14.51,4.01c4.55,2.71,8.12,6.31,10.9,11.02,2.73,4.6,4.12,10.04,4.12,16.15v91.03c0,8.53,1.8,16.13,5.36,22.59,3.58,6.48,8.52,11.58,14.68,15.16,6.15,3.58,13.22,5.39,20.99,5.39s15.07-1.81,21.22-5.39c6.17-3.58,11.08-8.69,14.57-15.19,3.47-6.45,5.23-14.04,5.23-22.57V36h-10.78Z"/><path class="cls-3" d="m253.03,56.58h0c-3.49-6.49-8.39-11.6-14.57-15.19-6.15-3.58-13.22-5.39-20.99-5.39s-15.07,1.81-21.22,5.39c-6.17,3.58-11.11,8.68-14.68,15.16-3.56,6.45-5.36,14.05-5.36,22.59v91.03c0,6.13-1.32,11.58-3.92,16.21-2.64,4.7-6.06,8.29-10.45,11-4.33,2.68-8.99,3.99-14.23,3.99s-10-1.31-14.51-4.01c-4.55-2.71-8.12-6.31-10.91-11.02-2.73-4.61-4.12-10.04-4.12-16.15v-91.03c0-8.53-1.8-16.14-5.36-22.59-3.58-6.48-8.52-11.58-14.68-15.16-6.15-3.58-13.22-5.39-20.99-5.39s-15.07,1.81-21.22,5.39c-6.17,3.58-11.08,8.69-14.57,15.19-3.47,6.45-5.23,14.04-5.23,22.57v132.54h10.79V77.5c0-6.06,1.32-11.32,4.03-16.08,2.71-4.75,6.29-8.38,10.98-11.09,4.68-2.71,9.66-4.02,15.24-4.02s10.51,1.31,15.11,4.02c4.61,2.71,8.21,6.34,11,11.11,2.78,4.77,4.14,10.02,4.14,16.06v91.03c0,8.53,1.76,16.12,5.23,22.57,3.5,6.49,8.36,11.6,14.44,15.18,6.08,3.58,13.03,5.39,20.65,5.39s14.51-1.82,20.45-5.41c5.92-3.59,10.62-8.71,13.96-15.21,3.3-6.44,4.97-14.02,4.97-22.52v-91.03c0-6.06,1.32-11.31,4.03-16.08,2.71-4.75,6.29-8.38,10.98-11.09,4.68-2.71,9.74-4.02,15.47-4.02s10.69,1.31,15.21,4.01c4.53,2.71,8.06,6.34,10.77,11.1,2.72,4.77,4.03,10.03,4.03,16.08v133.84c1.83.22,3.71.33,5.64.33,1.76,0,3.47-.1,5.15-.28V79.14c0-8.52-1.76-16.12-5.23-22.56Z"/></g></svg>