<?xml version="1.0" encoding="UTF-8"?><svg id="Layer_2" xmlns="http://www.w3.org/2000/svg" viewBox="0 0 59.29 40.35"><defs><style>.cls-1{fill:#b1b3b6;}.cls-1,.cls-2{stroke-width:0px;}.cls-2{fill:#010101;}</style></defs><g id="Layer_1-2"><path class="cls-1" d="m56.82,0v30.82c0,1.39-.3,2.6-.93,3.69-.62,1.09-1.45,1.93-2.52,2.55-1.07.62-2.22.92-3.5.92s-2.41-.3-3.47-.92c-1.06-.62-1.88-1.46-2.53-2.55-.64-1.1-.95-2.3-.95-3.69V9.91c0-1.96-.4-3.7-1.2-5.19-.8-1.49-1.92-2.66-3.32-3.49-1.4-.82-2.99-1.24-4.74-1.24s-3.33.42-4.7,1.24c-1.36.82-2.44,2-3.21,3.49-.76,1.48-1.14,3.22-1.14,5.17v20.91c0,1.39-.3,2.6-.93,3.69-.62,1.09-1.45,1.93-2.52,2.55-1.07.62-2.24.92-3.55.92s-2.46-.3-3.49-.92c-1.04-.62-1.85-1.46-2.47-2.55-.62-1.1-.93-2.3-.93-3.69V.7h-2.48v29.74c0,1.96.4,3.7,1.2,5.18h0c.8,1.49,1.93,2.66,3.35,3.49,1.41.82,3.04,1.24,4.82,1.24s3.46-.42,4.88-1.24c1.42-.82,2.55-1.99,3.37-3.48.82-1.48,1.23-3.23,1.23-5.19V9.53c0-1.41.3-2.66.9-3.72.61-1.08,1.39-1.91,2.4-2.53,1-.62,2.07-.92,3.27-.92s2.3.3,3.33.92c1.04.62,1.86,1.45,2.5,2.53.63,1.06.95,2.31.95,3.71v20.91c0,1.96.41,3.7,1.23,5.19.82,1.49,1.96,2.66,3.37,3.48,1.41.82,3.04,1.24,4.82,1.24s3.46-.42,4.88-1.24c1.42-.82,2.54-2,3.35-3.49.8-1.48,1.2-3.23,1.2-5.18V0h-2.48Z"/><path class="cls-2" d="m49.85,4.73h0c-.8-1.49-1.93-2.66-3.35-3.49-1.41-.82-3.04-1.24-4.82-1.24s-3.46.42-4.88,1.24c-1.42.82-2.55,1.99-3.37,3.48-.82,1.48-1.23,3.23-1.23,5.19v20.91c0,1.41-.3,2.66-.9,3.72-.61,1.08-1.39,1.91-2.4,2.53-1,.62-2.07.92-3.27.92s-2.3-.3-3.33-.92c-1.04-.62-1.86-1.45-2.51-2.53-.63-1.06-.95-2.31-.95-3.71V9.91c0-1.96-.41-3.71-1.23-5.19-.82-1.49-1.96-2.66-3.37-3.48-1.41-.82-3.04-1.24-4.82-1.24s-3.46.42-4.88,1.24c-1.42.82-2.54,2-3.35,3.49-.8,1.48-1.2,3.23-1.2,5.18v30.44h2.48V9.53c0-1.39.3-2.6.93-3.69.62-1.09,1.45-1.93,2.52-2.55,1.07-.62,2.22-.92,3.5-.92s2.41.3,3.47.92c1.06.62,1.89,1.46,2.53,2.55.64,1.1.95,2.3.95,3.69v20.91c0,1.96.4,3.7,1.2,5.18.8,1.49,1.92,2.66,3.32,3.49,1.4.82,2.99,1.24,4.74,1.24s3.33-.42,4.7-1.24c1.36-.82,2.44-2,3.21-3.49.76-1.48,1.14-3.22,1.14-5.17V9.53c0-1.39.3-2.6.93-3.69.62-1.09,1.45-1.93,2.52-2.55,1.07-.62,2.24-.92,3.55-.92s2.46.3,3.49.92c1.04.62,1.85,1.46,2.47,2.55.62,1.1.93,2.3.93,3.69v30.74c.42.05.85.08,1.29.08.4,0,.8-.02,1.18-.06V9.91c0-1.96-.4-3.7-1.2-5.18Z"/></g></svg>